<mxfile host="app.diagrams.net" modified="2021-07-01T08:03:08.345Z" agent="5.0 (Macintosh; Intel Mac OS X 11_2_1) AppleWebKit/537.36 (KHTML, like Gecko) Chrome/89.0.4389.90 Safari/537.36" etag="Wznsb7INkWY_kxAlrk8a" version="14.8.2" type="github">
  <diagram id="EsMcHmFCRJJ24w4XT0aC" name="Page-1">
    <mxGraphModel dx="1232" dy="809" grid="1" gridSize="10" guides="1" tooltips="1" connect="1" arrows="1" fold="1" page="1" pageScale="1" pageWidth="827" pageHeight="1169" math="0" shadow="0">
      <root>
        <mxCell id="0" />
        <mxCell id="1" parent="0" />
        <mxCell id="PRGIWrAmWQrkpULuuBtC-51" style="edgeStyle=orthogonalEdgeStyle;rounded=0;orthogonalLoop=1;jettySize=auto;html=1;exitX=0.5;exitY=1;exitDx=0;exitDy=0;entryX=0.5;entryY=0;entryDx=0;entryDy=0;" edge="1" parent="1" source="PRGIWrAmWQrkpULuuBtC-22" target="PRGIWrAmWQrkpULuuBtC-23">
          <mxGeometry relative="1" as="geometry" />
        </mxCell>
        <mxCell id="PRGIWrAmWQrkpULuuBtC-52" style="edgeStyle=orthogonalEdgeStyle;rounded=0;orthogonalLoop=1;jettySize=auto;html=1;exitX=0.5;exitY=1;exitDx=0;exitDy=0;entryX=0.5;entryY=0;entryDx=0;entryDy=0;" edge="1" parent="1" source="PRGIWrAmWQrkpULuuBtC-22" target="PRGIWrAmWQrkpULuuBtC-24">
          <mxGeometry relative="1" as="geometry" />
        </mxCell>
        <mxCell id="PRGIWrAmWQrkpULuuBtC-22" value="商品信息" style="whiteSpace=wrap;html=1;aspect=fixed;fillColor=#FFFFFF;" vertex="1" parent="1">
          <mxGeometry x="204" y="150" width="80" height="80" as="geometry" />
        </mxCell>
        <mxCell id="PRGIWrAmWQrkpULuuBtC-23" value="静态资源" style="whiteSpace=wrap;html=1;aspect=fixed;" vertex="1" parent="1">
          <mxGeometry x="100" y="360" width="80" height="80" as="geometry" />
        </mxCell>
        <mxCell id="PRGIWrAmWQrkpULuuBtC-37" style="edgeStyle=orthogonalEdgeStyle;rounded=0;orthogonalLoop=1;jettySize=auto;html=1;exitX=0.5;exitY=1;exitDx=0;exitDy=0;entryX=0.5;entryY=0;entryDx=0;entryDy=0;" edge="1" parent="1" source="PRGIWrAmWQrkpULuuBtC-24" target="PRGIWrAmWQrkpULuuBtC-27">
          <mxGeometry relative="1" as="geometry" />
        </mxCell>
        <mxCell id="PRGIWrAmWQrkpULuuBtC-24" value="库存" style="whiteSpace=wrap;html=1;aspect=fixed;fillColor=#FFFFFF;" vertex="1" parent="1">
          <mxGeometry x="240" y="360" width="80" height="80" as="geometry" />
        </mxCell>
        <mxCell id="PRGIWrAmWQrkpULuuBtC-39" style="edgeStyle=orthogonalEdgeStyle;rounded=0;orthogonalLoop=1;jettySize=auto;html=1;exitX=0.5;exitY=1;exitDx=0;exitDy=0;entryX=0.5;entryY=0;entryDx=0;entryDy=0;" edge="1" parent="1" source="PRGIWrAmWQrkpULuuBtC-25" target="PRGIWrAmWQrkpULuuBtC-26">
          <mxGeometry relative="1" as="geometry" />
        </mxCell>
        <mxCell id="PRGIWrAmWQrkpULuuBtC-25" value="秒杀" style="whiteSpace=wrap;html=1;aspect=fixed;fillColor=#FFFFFF;" vertex="1" parent="1">
          <mxGeometry x="520" y="150" width="80" height="80" as="geometry" />
        </mxCell>
        <mxCell id="PRGIWrAmWQrkpULuuBtC-41" style="edgeStyle=orthogonalEdgeStyle;rounded=0;orthogonalLoop=1;jettySize=auto;html=1;exitX=0.5;exitY=1;exitDx=0;exitDy=0;entryX=0.5;entryY=0;entryDx=0;entryDy=0;" edge="1" parent="1" source="PRGIWrAmWQrkpULuuBtC-26" target="PRGIWrAmWQrkpULuuBtC-40">
          <mxGeometry relative="1" as="geometry" />
        </mxCell>
        <mxCell id="PRGIWrAmWQrkpULuuBtC-26" value="预减库存" style="whiteSpace=wrap;html=1;aspect=fixed;fillColor=#FFFFFF;" vertex="1" parent="1">
          <mxGeometry x="520" y="360" width="80" height="80" as="geometry" />
        </mxCell>
        <mxCell id="PRGIWrAmWQrkpULuuBtC-38" style="edgeStyle=orthogonalEdgeStyle;rounded=0;orthogonalLoop=1;jettySize=auto;html=1;exitX=0.5;exitY=1;exitDx=0;exitDy=0;entryX=0;entryY=0;entryDx=0;entryDy=52.5;entryPerimeter=0;" edge="1" parent="1" source="PRGIWrAmWQrkpULuuBtC-27" target="PRGIWrAmWQrkpULuuBtC-29">
          <mxGeometry relative="1" as="geometry" />
        </mxCell>
        <mxCell id="PRGIWrAmWQrkpULuuBtC-27" value="预加载库存" style="whiteSpace=wrap;html=1;aspect=fixed;fillColor=#FFFFFF;" vertex="1" parent="1">
          <mxGeometry x="240" y="545" width="80" height="80" as="geometry" />
        </mxCell>
        <mxCell id="PRGIWrAmWQrkpULuuBtC-60" style="edgeStyle=orthogonalEdgeStyle;rounded=0;orthogonalLoop=1;jettySize=auto;html=1;exitX=0;exitY=0.5;exitDx=0;exitDy=0;entryX=1;entryY=0.5;entryDx=0;entryDy=0;" edge="1" parent="1" source="PRGIWrAmWQrkpULuuBtC-28" target="PRGIWrAmWQrkpULuuBtC-24">
          <mxGeometry relative="1" as="geometry" />
        </mxCell>
        <mxCell id="PRGIWrAmWQrkpULuuBtC-28" value="归还库库" style="whiteSpace=wrap;html=1;aspect=fixed;fillColor=#FFFFFF;" vertex="1" parent="1">
          <mxGeometry x="380" y="360" width="80" height="80" as="geometry" />
        </mxCell>
        <mxCell id="PRGIWrAmWQrkpULuuBtC-29" value="库存表" style="shape=cylinder3;whiteSpace=wrap;html=1;boundedLbl=1;backgroundOutline=1;size=15;fillColor=#FFFFFF;" vertex="1" parent="1">
          <mxGeometry x="254" y="830" width="60" height="80" as="geometry" />
        </mxCell>
        <mxCell id="PRGIWrAmWQrkpULuuBtC-43" style="edgeStyle=orthogonalEdgeStyle;rounded=0;orthogonalLoop=1;jettySize=auto;html=1;exitX=1;exitY=0.5;exitDx=0;exitDy=0;entryX=0;entryY=0.5;entryDx=0;entryDy=0;" edge="1" parent="1" source="PRGIWrAmWQrkpULuuBtC-30" target="PRGIWrAmWQrkpULuuBtC-31">
          <mxGeometry relative="1" as="geometry" />
        </mxCell>
        <mxCell id="PRGIWrAmWQrkpULuuBtC-64" style="edgeStyle=orthogonalEdgeStyle;rounded=0;orthogonalLoop=1;jettySize=auto;html=1;exitX=0;exitY=0.5;exitDx=0;exitDy=0;" edge="1" parent="1" source="PRGIWrAmWQrkpULuuBtC-30">
          <mxGeometry relative="1" as="geometry">
            <mxPoint x="420" y="450" as="targetPoint" />
          </mxGeometry>
        </mxCell>
        <mxCell id="PRGIWrAmWQrkpULuuBtC-65" value="下单异常" style="edgeLabel;html=1;align=center;verticalAlign=middle;resizable=0;points=[];" vertex="1" connectable="0" parent="PRGIWrAmWQrkpULuuBtC-64">
          <mxGeometry x="-0.75" y="1" relative="1" as="geometry">
            <mxPoint as="offset" />
          </mxGeometry>
        </mxCell>
        <mxCell id="PRGIWrAmWQrkpULuuBtC-30" value="异步(MQ)下单" style="whiteSpace=wrap;html=1;aspect=fixed;fillColor=#FFFFFF;" vertex="1" parent="1">
          <mxGeometry x="520" y="630" width="80" height="80" as="geometry" />
        </mxCell>
        <mxCell id="PRGIWrAmWQrkpULuuBtC-44" style="edgeStyle=orthogonalEdgeStyle;rounded=0;orthogonalLoop=1;jettySize=auto;html=1;exitX=0.5;exitY=1;exitDx=0;exitDy=0;entryX=0.5;entryY=0;entryDx=0;entryDy=0;" edge="1" parent="1" source="PRGIWrAmWQrkpULuuBtC-31" target="PRGIWrAmWQrkpULuuBtC-32">
          <mxGeometry relative="1" as="geometry" />
        </mxCell>
        <mxCell id="PRGIWrAmWQrkpULuuBtC-31" value="支付" style="whiteSpace=wrap;html=1;aspect=fixed;fillColor=#FFFFFF;" vertex="1" parent="1">
          <mxGeometry x="694" y="560" width="80" height="80" as="geometry" />
        </mxCell>
        <mxCell id="PRGIWrAmWQrkpULuuBtC-45" style="edgeStyle=orthogonalEdgeStyle;rounded=0;orthogonalLoop=1;jettySize=auto;html=1;exitX=0;exitY=0.5;exitDx=0;exitDy=0;entryX=0.5;entryY=1;entryDx=0;entryDy=0;" edge="1" parent="1" source="PRGIWrAmWQrkpULuuBtC-32" target="PRGIWrAmWQrkpULuuBtC-28">
          <mxGeometry relative="1" as="geometry">
            <mxPoint x="280" y="610" as="targetPoint" />
          </mxGeometry>
        </mxCell>
        <mxCell id="PRGIWrAmWQrkpULuuBtC-49" value="N" style="edgeLabel;html=1;align=center;verticalAlign=middle;resizable=0;points=[];" vertex="1" connectable="0" parent="PRGIWrAmWQrkpULuuBtC-45">
          <mxGeometry x="-0.3404" y="-1" relative="1" as="geometry">
            <mxPoint as="offset" />
          </mxGeometry>
        </mxCell>
        <mxCell id="PRGIWrAmWQrkpULuuBtC-47" style="edgeStyle=orthogonalEdgeStyle;rounded=0;orthogonalLoop=1;jettySize=auto;html=1;exitX=0.5;exitY=1;exitDx=0;exitDy=0;entryX=1;entryY=0.5;entryDx=0;entryDy=0;" edge="1" parent="1" source="PRGIWrAmWQrkpULuuBtC-32" target="PRGIWrAmWQrkpULuuBtC-46">
          <mxGeometry relative="1" as="geometry" />
        </mxCell>
        <mxCell id="PRGIWrAmWQrkpULuuBtC-48" value="Y" style="edgeLabel;html=1;align=center;verticalAlign=middle;resizable=0;points=[];" vertex="1" connectable="0" parent="PRGIWrAmWQrkpULuuBtC-47">
          <mxGeometry x="-0.4567" y="2" relative="1" as="geometry">
            <mxPoint as="offset" />
          </mxGeometry>
        </mxCell>
        <mxCell id="PRGIWrAmWQrkpULuuBtC-32" value="支付结果" style="rhombus;whiteSpace=wrap;html=1;fillColor=#FFFFFF;" vertex="1" parent="1">
          <mxGeometry x="694" y="710" width="80" height="80" as="geometry" />
        </mxCell>
        <mxCell id="PRGIWrAmWQrkpULuuBtC-58" style="edgeStyle=orthogonalEdgeStyle;rounded=0;orthogonalLoop=1;jettySize=auto;html=1;exitX=0.5;exitY=0.5;exitDx=0;exitDy=0;exitPerimeter=0;entryX=0.5;entryY=0;entryDx=0;entryDy=0;" edge="1" parent="1" source="PRGIWrAmWQrkpULuuBtC-33" target="PRGIWrAmWQrkpULuuBtC-25">
          <mxGeometry relative="1" as="geometry" />
        </mxCell>
        <mxCell id="PRGIWrAmWQrkpULuuBtC-33" value="Actor" style="shape=umlActor;verticalLabelPosition=bottom;verticalAlign=top;html=1;outlineConnect=0;fillColor=#FFFFFF;" vertex="1" parent="1">
          <mxGeometry x="399" y="20" width="30" height="60" as="geometry" />
        </mxCell>
        <mxCell id="PRGIWrAmWQrkpULuuBtC-42" style="edgeStyle=orthogonalEdgeStyle;rounded=0;orthogonalLoop=1;jettySize=auto;html=1;exitX=0.5;exitY=1;exitDx=0;exitDy=0;" edge="1" parent="1" source="PRGIWrAmWQrkpULuuBtC-40">
          <mxGeometry relative="1" as="geometry">
            <mxPoint x="560" y="630" as="targetPoint" />
          </mxGeometry>
        </mxCell>
        <mxCell id="PRGIWrAmWQrkpULuuBtC-40" value="是否有库存" style="rhombus;whiteSpace=wrap;html=1;fillColor=#FFFFFF;" vertex="1" parent="1">
          <mxGeometry x="520" y="490" width="80" height="80" as="geometry" />
        </mxCell>
        <mxCell id="PRGIWrAmWQrkpULuuBtC-55" style="edgeStyle=orthogonalEdgeStyle;rounded=0;orthogonalLoop=1;jettySize=auto;html=1;exitX=0;exitY=0.5;exitDx=0;exitDy=0;entryX=1;entryY=0;entryDx=0;entryDy=52.5;entryPerimeter=0;" edge="1" parent="1" source="PRGIWrAmWQrkpULuuBtC-46" target="PRGIWrAmWQrkpULuuBtC-29">
          <mxGeometry relative="1" as="geometry" />
        </mxCell>
        <mxCell id="PRGIWrAmWQrkpULuuBtC-46" value="减库存" style="whiteSpace=wrap;html=1;aspect=fixed;fillColor=#FFFFFF;" vertex="1" parent="1">
          <mxGeometry x="490" y="842" width="80" height="80" as="geometry" />
        </mxCell>
        <mxCell id="PRGIWrAmWQrkpULuuBtC-61" value="" style="swimlane;startSize=0;fillColor=#dae8fc;strokeColor=#6c8ebf;" vertex="1" parent="1">
          <mxGeometry x="55" y="270" width="610" height="200" as="geometry">
            <mxRectangle x="40" y="210" width="50" height="40" as="alternateBounds" />
          </mxGeometry>
        </mxCell>
        <mxCell id="PRGIWrAmWQrkpULuuBtC-62" value="缓存(redis)" style="text;html=1;align=center;verticalAlign=middle;resizable=0;points=[];autosize=1;strokeColor=none;" vertex="1" parent="1">
          <mxGeometry x="325" y="300" width="70" height="20" as="geometry" />
        </mxCell>
      </root>
    </mxGraphModel>
  </diagram>
</mxfile>
